<?xml version="1.0" encoding="UTF-8" standalone="no"?>
<!-- Created with Inkscape (http://www.inkscape.org/) -->

<svg
   width="30.714645mm"
   height="24.835562mm"
   viewBox="0 0 30.714645 24.835562"
   version="1.1"
   id="svg1"
   xmlns="http://www.w3.org/2000/svg"
   xmlns:svg="http://www.w3.org/2000/svg">
  <defs
     id="defs1" />
  <g
     id="layer1"
     transform="translate(-0.00266808,1.714861e-4)">
    <path
       id="path20"
       d="m 29.703942,14.234408 c -0.649285,2.186248 -0.645833,2.163461 -1.368529,4.35384 -0.74436,2.51185 -1.393721,4.89596 -2.053421,5.24874 -1.87325,0.9984 -10.922,0.9984 -10.922,0.9984 0,0 -9.0487513,0 -10.9220013,-0.9984 -0.65969,-0.35278 -1.46755,-2.38467 -2.21191,-4.89652 -0.6830116,-2.256171 -0.6914854,-2.280739 -1.21003,-4.70606 -0.74083993,-3.30552 -1.19238993,-6.2547496 -0.94544993,-6.5581296 0.56092,-0.68792 7.30249993,3.8699696 7.30249993,3.8699696 0,0 6.1771413,-11.54641948609 7.9868913,-11.54641948609 1.80975,0 7.98689,11.54641948609 7.98689,11.54641948609 0,0 6.74158,-4.5578896 7.3025,-3.8699696 0.24694,0.30338 -0.20461,3.2526096 -0.94544,6.5581296"
       style="display:inline;fill:#f9f9f9;fill-opacity:1;fill-rule:nonzero;stroke:none;stroke-width:0.035;stroke-dasharray:none" />
  </g>
</svg>
