<?xml version="1.0" encoding="UTF-8" standalone="no"?>
<!-- Uploaded to: SVG Repo, www.svgrepo.com, Generator: SVG Repo Mixer Tools -->

<svg
   fill="#000000"
   height="800px"
   width="800px"
   version="1.1"
   id="Capa_1"
   viewBox="0 0 351.639 351.639"
   xml:space="preserve"
   sodipodi:docname="health-kit.svg"
   inkscape:version="1.3.2 (1:1.3.2+202311252150+091e20ef0f)"
   xmlns:inkscape="http://www.inkscape.org/namespaces/inkscape"
   xmlns:sodipodi="http://sodipodi.sourceforge.net/DTD/sodipodi-0.dtd"
   xmlns="http://www.w3.org/2000/svg"
   xmlns:svg="http://www.w3.org/2000/svg"><defs
   id="defs2" /><sodipodi:namedview
   id="namedview2"
   pagecolor="#ffffff"
   bordercolor="#000000"
   borderopacity="0.25"
   inkscape:showpageshadow="2"
   inkscape:pageopacity="0.0"
   inkscape:pagecheckerboard="0"
   inkscape:deskcolor="#d1d1d1"
   inkscape:zoom="1.02"
   inkscape:cx="399.5098"
   inkscape:cy="400"
   inkscape:window-width="1850"
   inkscape:window-height="1016"
   inkscape:window-x="0"
   inkscape:window-y="0"
   inkscape:window-maximized="1"
   inkscape:current-layer="Capa_1" />
<g
   id="g2"
   style="fill:#ffffff">
	<path
   d="M196.875,305.854c-7.446,6.765-15.721,13.996-21.04,15.622c-6.283-1.884-16.534-11.402-31.528-25.324   c-2.546-2.364-5.25-4.874-8.128-7.528C80.463,237.239,20.686,162.049,20.006,105.12c-0.233-19.476,6.284-35.357,19.922-48.552   c17.737-17.159,40.879-26.609,65.165-26.609c23.858,0,46.547,9.018,63.89,25.393c3.853,3.638,9.876,3.638,13.73,0   c17.346-16.375,40.038-25.393,63.896-25.393c24.285,0,47.428,9.45,65.165,26.608c28.077,27.165,26.517,68.214-4.635,122.007   c-2.768,4.779-1.137,10.897,3.643,13.665c4.778,2.769,10.897,1.138,13.665-3.642c45.277-78.185,25.662-122.77,1.234-146.404   C304.191,21.407,276.11,9.959,246.607,9.959c-25.932,0-50.732,8.771-70.76,24.866c-20.025-16.096-44.823-24.866-70.755-24.866   c-29.502,0-57.583,11.448-79.071,32.235C8.462,59.183-0.29,80.434,0.007,105.358c0.952,79.643,94.089,171.661,122.612,197.968   c2.861,2.639,5.548,5.133,8.079,7.482c20.903,19.409,31.396,29.15,43.846,30.787c0.432,0.057,0.868,0.085,1.303,0.085   c0.435,0,0.87-0.028,1.302-0.085c10.009-1.314,19.024-8.083,33.174-20.938c4.087-3.714,4.391-10.038,0.677-14.126   C207.287,302.444,200.963,302.141,196.875,305.854z"
   id="path1"
   style="fill:#ffffff" />
	<path
   d="M317.536,208.583h-32.117v-32.114c0-5.522-4.477-10-10-10h-40.215c-5.523,0-10,4.478-10,10v32.114h-32.117   c-5.523,0-10,4.478-10,10v40.219c0,5.522,4.477,10,10,10h32.117v32.114c0,5.522,4.477,10,10,10h40.215c5.523,0,10-4.478,10-10   v-32.114h32.117c5.523,0,10-4.478,10-10v-40.219C327.536,213.06,323.059,208.583,317.536,208.583z M307.536,248.802h-32.117   c-5.523,0-10,4.478-10,10v32.114h-20.215v-32.114c0-5.522-4.477-10-10-10h-32.117v-20.219h32.117c5.523,0,10-4.478,10-10v-32.114   h20.215v32.114c0,5.522,4.477,10,10,10h32.117V248.802z"
   id="path2"
   style="fill:#ffffff" />
</g>
</svg>
